<svg width="100" height="100" viewBox="0 0 100 100" fill="none" xmlns="http://www.w3.org/2000/svg">
<path d="M68.7001 54.7018L50.7001 72.7018C50.6092 72.7956 50.5004 72.8701 50.3802 72.921C50.2599 72.9719 50.1307 72.9981 50.0001 72.9981C49.8695 72.9981 49.7403 72.9719 49.62 72.921C49.4998 72.8701 49.391 72.7956 49.3001 72.7018L31.3001 54.7018C31.1557 54.5093 31.0856 54.2711 31.1026 54.0309C31.1197 53.7908 31.2228 53.5649 31.393 53.3947C31.5632 53.2245 31.7891 53.1214 32.0292 53.1043C32.2693 53.0873 32.5075 53.1574 32.7001 53.3018L49.0001 69.5768V28.0018C49.0001 27.7366 49.1055 27.4823 49.293 27.2947C49.4805 27.1072 49.7349 27.0018 50.0001 27.0018C50.2653 27.0018 50.5197 27.1072 50.7072 27.2947C50.8947 27.4823 51.0001 27.7366 51.0001 28.0018V69.5768L67.3001 53.3018C67.4927 53.1574 67.7309 53.0873 67.971 53.1043C68.2111 53.1214 68.437 53.2245 68.6072 53.3947C68.7774 53.5649 68.8805 53.7908 68.8976 54.0309C68.9146 54.2711 68.8445 54.5093 68.7001 54.7018Z" fill="black"/>
<rect x="0.75" y="0.75" width="98.5" height="98.5" rx="49.25" stroke="black" stroke-width="1.5"/>
</svg>
