<svg width="154" height="50" viewBox="0 0 308 98" fill="none" xmlns="http://www.w3.org/2000/svg">
<rect x="0.647462" y="0.705171" width="306.145" height="96.3869" rx="48.1934" fill="white"/>
<path d="M88.2149 61.729C89.5761 61.729 90.8815 61.1883 91.8439 60.2258C92.8064 59.2634 93.3471 57.958 93.3471 56.5968V28.37C93.3471 27.0088 92.8064 25.7035 91.8439 24.741C90.8815 23.7785 89.5761 23.2378 88.2149 23.2378H61.1685C62.0666 24.8031 62.5541 26.5737 62.5541 28.37H88.2149V56.5968H65.1202V61.729M75.3845 36.0682V41.2004H59.9881V74.5594H54.8559V59.1629H49.7237V74.5594H44.5916V54.0308H40.7425V41.2004C40.7425 39.8392 41.2832 38.5338 42.2456 37.5714C43.2081 36.6089 44.5135 36.0682 45.8746 36.0682H75.3845ZM57.422 28.37C57.422 29.7311 56.8813 31.0365 55.9188 31.999C54.9563 32.9614 53.651 33.5021 52.2898 33.5021C50.9287 33.5021 49.6233 32.9614 48.6608 31.999C47.6984 31.0365 47.1577 29.7311 47.1577 28.37C47.1577 27.0088 47.6984 25.7035 48.6608 24.741C49.6233 23.7785 50.9287 23.2378 52.2898 23.2378C53.651 23.2378 54.9563 23.7785 55.9188 24.741C56.8813 25.7035 57.422 27.0088 57.422 28.37Z" fill="black"/>
<path d="M140.387 36.9666V40.2359H133.884V61.3986H129.876V40.2359H123.338V36.9666H140.387ZM162.199 51.2391C162.199 51.9656 162.152 52.6218 162.058 53.2077H147.258C147.375 54.7545 147.95 55.9966 148.981 56.9341C150.012 57.8715 151.278 58.3402 152.777 58.3402C154.934 58.3402 156.457 57.4379 157.347 55.6334H161.671C161.086 57.4145 160.019 58.8792 158.472 60.0276C156.949 61.1525 155.051 61.715 152.777 61.715C150.926 61.715 149.262 61.3049 147.786 60.4846C146.333 59.6409 145.184 58.4691 144.341 56.9692C143.52 55.4459 143.11 53.6882 143.11 51.6961C143.11 49.704 143.509 47.9581 144.305 46.4582C145.126 44.9348 146.262 43.763 147.715 42.9428C149.192 42.1225 150.879 41.7124 152.777 41.7124C154.605 41.7124 156.234 42.1108 157.664 42.9076C159.093 43.7044 160.207 44.8294 161.003 46.2824C161.8 47.712 162.199 49.3642 162.199 51.2391ZM158.015 49.9736C157.992 48.4971 157.465 47.3136 156.433 46.423C155.402 45.5324 154.125 45.0872 152.602 45.0872C151.219 45.0872 150.035 45.5324 149.051 46.423C148.067 47.2901 147.481 48.4737 147.293 49.9736H158.015ZM164.807 51.6258C164.807 49.6806 165.205 47.9581 166.002 46.4582C166.822 44.9583 167.924 43.7982 169.306 42.9779C170.713 42.1342 172.259 41.7124 173.947 41.7124C175.47 41.7124 176.794 42.017 177.919 42.6264C179.068 43.2123 179.982 43.9505 180.661 44.8411V42.0288H184.704V61.3986H180.661V58.516C179.982 59.43 179.056 60.1917 177.884 60.801C176.712 61.4103 175.376 61.715 173.876 61.715C172.212 61.715 170.689 61.2931 169.306 60.4495C167.924 59.5823 166.822 58.3871 166.002 56.8637C165.205 55.317 164.807 53.571 164.807 51.6258ZM180.661 51.6961C180.661 50.3603 180.38 49.2002 179.817 48.2159C179.278 47.2315 178.564 46.4816 177.673 45.966C176.783 45.4504 175.822 45.1926 174.79 45.1926C173.759 45.1926 172.798 45.4504 171.908 45.966C171.017 46.4582 170.291 47.1964 169.728 48.1807C169.189 49.1416 168.92 50.2899 168.92 51.6258C168.92 52.9616 169.189 54.1334 169.728 55.1412C170.291 56.1489 171.017 56.9223 171.908 57.4614C172.822 57.977 173.783 58.2347 174.79 58.2347C175.822 58.2347 176.783 57.977 177.673 57.4614C178.564 56.9458 179.278 56.1958 179.817 55.2115C180.38 54.2038 180.661 53.032 180.661 51.6961ZM188.632 51.6961C188.632 49.704 189.03 47.9581 189.827 46.4582C190.647 44.9348 191.772 43.763 193.202 42.9428C194.631 42.1225 196.272 41.7124 198.123 41.7124C200.467 41.7124 202.4 42.2748 203.924 43.3998C205.471 44.5013 206.513 46.0832 207.052 48.1456H202.729C202.377 47.1847 201.815 46.4347 201.041 45.8957C200.268 45.3567 199.295 45.0872 198.123 45.0872C196.483 45.0872 195.17 45.6731 194.186 46.8449C193.225 47.9932 192.745 49.6103 192.745 51.6961C192.745 53.7819 193.225 55.4107 194.186 56.5825C195.17 57.7543 196.483 58.3402 198.123 58.3402C200.444 58.3402 201.979 57.3207 202.729 55.2818H207.052C206.49 57.2504 205.435 58.8206 203.889 59.9924C202.342 61.1408 200.42 61.715 198.123 61.715C196.272 61.715 194.631 61.3049 193.202 60.4846C191.772 59.6409 190.647 58.4691 189.827 56.9692C189.03 55.4459 188.632 53.6882 188.632 51.6961ZM221.065 41.7124C222.542 41.7124 223.854 42.0288 225.002 42.6615C226.174 43.2943 227.088 44.2317 227.744 45.4738C228.424 46.716 228.764 48.2159 228.764 49.9736V61.3986H224.792V50.5712C224.792 48.8369 224.358 47.5128 223.491 46.5988C222.624 45.6613 221.44 45.1926 219.94 45.1926C218.44 45.1926 217.245 45.6613 216.355 46.5988C215.487 47.5128 215.054 48.8369 215.054 50.5712V61.3986H211.046V35.3846H215.054V44.2786C215.734 43.4584 216.589 42.8256 217.62 42.3803C218.675 41.935 219.823 41.7124 221.065 41.7124ZM251.629 51.2391C251.629 51.9656 251.582 52.6218 251.488 53.2077H236.688C236.805 54.7545 237.379 55.9966 238.411 56.9341C239.442 57.8715 240.707 58.3402 242.207 58.3402C244.363 58.3402 245.887 57.4379 246.777 55.6334H251.101C250.515 57.4145 249.449 58.8792 247.902 60.0276C246.379 61.1525 244.481 61.715 242.207 61.715C240.356 61.715 238.692 61.3049 237.215 60.4846C235.762 59.6409 234.614 58.4691 233.77 56.9692C232.95 55.4459 232.54 53.6882 232.54 51.6961C232.54 49.704 232.938 47.9581 233.735 46.4582C234.555 44.9348 235.692 43.763 237.145 42.9428C238.622 42.1225 240.309 41.7124 242.207 41.7124C244.035 41.7124 245.664 42.1108 247.094 42.9076C248.523 43.7044 249.637 44.8294 250.433 46.2824C251.23 47.712 251.629 49.3642 251.629 51.2391ZM247.445 49.9736C247.422 48.4971 246.895 47.3136 245.863 46.423C244.832 45.5324 243.555 45.0872 242.032 45.0872C240.649 45.0872 239.465 45.5324 238.481 46.423C237.497 47.2901 236.911 48.4737 236.723 49.9736H247.445ZM259.58 44.8411C260.166 43.8568 260.939 43.0951 261.9 42.5561C262.884 41.9936 264.045 41.7124 265.38 41.7124V45.8605H264.361C262.791 45.8605 261.595 46.259 260.775 47.0558C259.978 47.8526 259.58 49.2353 259.58 51.2039V61.3986H255.572V42.0288H259.58V44.8411Z" fill="black"/>
<rect x="0.647462" y="0.705171" width="306.145" height="96.3869" rx="48.1934" stroke="black" stroke-width="0.81"/>
</svg>
