<svg width="151" height="49" viewBox="0 0 303 98" fill="none" xmlns="http://www.w3.org/2000/svg">
<rect x="1.00473" y="0.705171" width="301.057" height="96.3869" rx="48.1934" fill="white"/>
<path d="M93.5908 31.3717L68.7076 23.0773C68.2854 22.9473 67.8339 22.9473 67.4116 23.0773L42.5543 31.3717H42.5025L42.2433 31.5013H42.2174L41.9582 31.6568C41.9582 31.6827 41.9323 31.6827 41.9063 31.7086L41.699 31.8901L41.5175 32.0974C41.5175 32.1234 41.4916 32.1234 41.4916 32.1493L41.3361 32.3826C41.3361 32.4085 41.3361 32.4085 41.3102 32.4344L41.2065 32.6677L41.1287 32.9528V33.0306C41.1032 33.1321 41.0944 33.2372 41.1028 33.3416V54.0776C41.1028 54.6276 41.3213 55.155 41.7102 55.5439C42.099 55.9327 42.6265 56.1512 43.1764 56.1512C43.7264 56.1512 44.2538 55.9327 44.6427 55.5439C45.0316 55.155 45.25 54.6276 45.25 54.0776V36.2187L53.9591 39.1218C52.323 41.7407 51.4604 44.7688 51.4708 47.8568C51.4718 50.6652 52.1857 53.4275 53.5458 55.8846C54.9058 58.3418 56.8675 60.4135 59.2468 61.9054C54.3023 63.7759 50.0811 67.171 47.194 71.5995C46.8997 72.0649 46.8 72.6272 46.9164 73.1654C47.0328 73.7035 47.3559 74.1744 47.8161 74.4766C48.042 74.6263 48.2953 74.7296 48.5614 74.7807C48.8274 74.8317 49.101 74.8294 49.3662 74.774C49.6314 74.7185 49.883 74.611 50.1063 74.4576C50.3296 74.3043 50.5203 74.1081 50.6673 73.8805C52.5494 70.9813 55.1264 68.5987 58.1639 66.9492C61.2014 65.2996 64.6031 64.4356 68.0596 64.4356C71.5161 64.4356 74.9178 65.2996 77.9553 66.9492C80.9928 68.5987 83.5698 70.9813 85.4519 73.8805C85.6412 74.1679 85.8991 74.4037 86.2023 74.5666C86.5055 74.7295 86.8444 74.8144 87.1886 74.8136C87.5858 74.8178 87.9748 74.7002 88.3031 74.4766C88.7634 74.1744 89.0865 73.7035 89.2028 73.1654C89.3192 72.6272 89.2195 72.0649 88.9252 71.5995C86.0381 67.171 81.8169 63.7759 76.8724 61.9054C79.2518 60.4135 81.2134 58.3418 82.5735 55.8846C83.9335 53.4275 84.6475 50.6652 84.6484 47.8568C84.6589 44.7688 83.7963 41.7407 82.1601 39.1218L93.5908 35.3115C94.0057 35.1752 94.3669 34.9113 94.623 34.5576C94.8791 34.2038 95.0169 33.7783 95.0169 33.3416C95.0169 32.9049 94.8791 32.4793 94.623 32.1256C94.3669 31.7719 94.0057 31.508 93.5908 31.3717ZM68.0596 60.2984C64.7599 60.2984 61.5953 58.9876 59.2621 56.6543C56.9288 54.3211 55.618 51.1565 55.618 47.8568C55.623 45.2019 56.4667 42.6165 58.0286 40.4696L67.4116 43.6059C67.8325 43.7444 68.2867 43.7444 68.7076 43.6059L78.0907 40.4696C79.6525 42.6165 80.4962 45.2019 80.5012 47.8568C80.5012 51.1565 79.1904 54.3211 76.8572 56.6543C74.5239 58.9876 71.3593 60.2984 68.0596 60.2984Z" fill="black"/>
<path d="M134.276 61.6447C132.635 61.6447 131.159 61.3635 129.846 60.801C128.534 60.2151 127.503 59.3948 126.753 58.3402C126.003 57.2856 125.628 56.0552 125.628 54.649H129.917C130.01 55.7037 130.42 56.5708 131.147 57.2504C131.897 57.9301 132.94 58.2699 134.276 58.2699C135.658 58.2699 136.736 57.9418 137.51 57.2856C138.283 56.6059 138.67 55.7388 138.67 54.6842C138.67 53.8639 138.424 53.196 137.932 52.6804C137.463 52.1648 136.865 51.7664 136.139 51.4852C135.436 51.2039 134.451 50.8993 133.186 50.5712C131.592 50.1493 130.292 49.7275 129.284 49.3056C128.299 48.8603 127.456 48.1807 126.753 47.2667C126.05 46.3527 125.698 45.134 125.698 43.6107C125.698 42.2045 126.05 40.9741 126.753 39.9195C127.456 38.8649 128.44 38.0564 129.706 37.4939C130.971 36.9314 132.436 36.6502 134.1 36.6502C136.467 36.6502 138.4 37.2478 139.9 38.443C141.424 39.6148 142.267 41.2319 142.431 43.2943H138.002C137.932 42.4037 137.51 41.6421 136.736 41.0093C135.963 40.3765 134.944 40.0601 133.678 40.0601C132.53 40.0601 131.592 40.3531 130.866 40.939C130.139 41.5249 129.776 42.3686 129.776 43.4701C129.776 44.22 129.999 44.8411 130.444 45.3332C130.913 45.802 131.498 46.1769 132.202 46.4582C132.905 46.7394 133.866 47.0441 135.084 47.3722C136.701 47.8174 138.014 48.2627 139.021 48.708C140.053 49.1533 140.92 49.8447 141.623 50.7821C142.349 51.6961 142.713 52.9265 142.713 54.4733C142.713 55.7154 142.373 56.8872 141.693 57.9887C141.037 59.0902 140.064 59.9807 138.775 60.6604C137.51 61.3166 136.01 61.6447 134.276 61.6447ZM152.117 45.2981V56.02C152.117 56.7466 152.281 57.2739 152.609 57.602C152.961 57.9066 153.546 58.059 154.367 58.059H156.827V61.3986H153.664C151.859 61.3986 150.476 60.9768 149.515 60.1331C148.555 59.2894 148.074 57.9184 148.074 56.02V45.2981H145.789V42.0288H148.074V37.2127H152.117V42.0288H156.827V45.2981H152.117ZM178.063 42.0288V61.3986H174.055V59.1136C173.423 59.9104 172.591 60.5432 171.559 61.0119C170.552 61.4572 169.474 61.6798 168.325 61.6798C166.802 61.6798 165.431 61.3635 164.212 60.7307C163.017 60.0979 162.068 59.1605 161.365 57.9184C160.685 56.6763 160.345 55.1764 160.345 53.4187V42.0288H164.318V52.821C164.318 54.5553 164.751 55.8911 165.618 56.8286C166.486 57.7426 167.669 58.1996 169.169 58.1996C170.669 58.1996 171.852 57.7426 172.72 56.8286C173.61 55.8911 174.055 54.5553 174.055 52.821V42.0288H178.063ZM182.015 51.6258C182.015 49.6806 182.413 47.9581 183.21 46.4582C184.03 44.9583 185.132 43.7982 186.514 42.9779C187.921 42.1342 189.479 41.7124 191.19 41.7124C192.456 41.7124 193.698 41.9936 194.916 42.5561C196.158 43.0951 197.143 43.8216 197.869 44.7356V35.3846H201.912V61.3986H197.869V58.4808C197.213 59.4183 196.299 60.1917 195.127 60.801C193.979 61.4103 192.655 61.715 191.155 61.715C189.467 61.715 187.921 61.2931 186.514 60.4495C185.132 59.5823 184.03 58.3871 183.21 56.8637C182.413 55.317 182.015 53.571 182.015 51.6258ZM197.869 51.6961C197.869 50.3603 197.588 49.2002 197.026 48.2159C196.487 47.2315 195.772 46.4816 194.881 45.966C193.991 45.4504 193.03 45.1926 191.999 45.1926C190.967 45.1926 190.006 45.4504 189.116 45.966C188.225 46.4582 187.499 47.1964 186.936 48.1807C186.397 49.1416 186.128 50.2899 186.128 51.6258C186.128 52.9616 186.397 54.1334 186.936 55.1412C187.499 56.1489 188.225 56.9223 189.116 57.4614C190.03 57.977 190.991 58.2347 191.999 58.2347C193.03 58.2347 193.991 57.977 194.881 57.4614C195.772 56.9458 196.487 56.1958 197.026 55.2115C197.588 54.2038 197.869 53.032 197.869 51.6961ZM224.928 51.2391C224.928 51.9656 224.882 52.6218 224.788 53.2077H209.988C210.105 54.7545 210.679 55.9966 211.711 56.9341C212.742 57.8715 214.007 58.3402 215.507 58.3402C217.663 58.3402 219.187 57.4379 220.077 55.6334H224.401C223.815 57.4145 222.749 58.8792 221.202 60.0276C219.679 61.1525 217.781 61.715 215.507 61.715C213.656 61.715 211.992 61.3049 210.515 60.4846C209.062 59.6409 207.914 58.4691 207.07 56.9692C206.25 55.4459 205.84 53.6882 205.84 51.6961C205.84 49.704 206.238 47.9581 207.035 46.4582C207.855 44.9348 208.992 43.763 210.445 42.9428C211.922 42.1225 213.609 41.7124 215.507 41.7124C217.335 41.7124 218.964 42.1108 220.394 42.9076C221.823 43.7044 222.936 44.8294 223.733 46.2824C224.53 47.712 224.928 49.3642 224.928 51.2391ZM220.745 49.9736C220.722 48.4971 220.194 47.3136 219.163 46.423C218.132 45.5324 216.855 45.0872 215.331 45.0872C213.949 45.0872 212.765 45.5324 211.781 46.423C210.797 47.2901 210.211 48.4737 210.023 49.9736H220.745ZM238.645 41.7124C240.168 41.7124 241.528 42.0288 242.723 42.6615C243.942 43.2943 244.891 44.2317 245.57 45.4738C246.25 46.716 246.59 48.2159 246.59 49.9736V61.3986H242.618V50.5712C242.618 48.8369 242.184 47.5128 241.317 46.5988C240.45 45.6613 239.266 45.1926 237.766 45.1926C236.266 45.1926 235.071 45.6613 234.181 46.5988C233.313 47.5128 232.88 48.8369 232.88 50.5712V61.3986H228.872V42.0288H232.88V44.2435C233.536 43.4466 234.368 42.8256 235.376 42.3803C236.407 41.935 237.497 41.7124 238.645 41.7124ZM256.377 45.2981V56.02C256.377 56.7466 256.541 57.2739 256.869 57.602C257.221 57.9066 257.807 58.059 258.627 58.059H261.088V61.3986H257.924C256.12 61.3986 254.737 60.9768 253.776 60.1331C252.815 59.2894 252.335 57.9184 252.335 56.02V45.2981H250.05V42.0288H252.335V37.2127H256.377V42.0288H261.088V45.2981H256.377Z" fill="black"/>
<rect x="1.00473" y="0.705171" width="301.057" height="96.3869" rx="48.1934" stroke="black" stroke-width="0.81"/>
</svg>
